<svg width="300" height="300" viewBox="0 0 300 300" fill="none" xmlns="http://www.w3.org/2000/svg">
<rect width="300" height="300" fill="#1A1825"/>
<path d="M150 48V252" stroke="#DEDDF4" stroke-width="2" stroke-linecap="round"/>
<path d="M48 149H252" stroke="#DEDDF4" stroke-width="2" stroke-linecap="round"/>
<path d="M149.785 41.1289C148.762 41.1289 147.973 40.7539 147.418 40.0039C146.871 39.2539 146.598 38.2227 146.598 36.9102C146.598 35.5977 146.871 34.5664 147.418 33.8164C147.973 33.0664 148.762 32.6914 149.785 32.6914C150.793 32.6914 151.574 33.0625 152.129 33.8047C152.691 34.5469 152.973 35.582 152.973 36.9102C152.973 38.2383 152.691 39.2734 152.129 40.0156C151.574 40.7578 150.793 41.1289 149.785 41.1289ZM149.785 40.1211C150.449 40.1211 150.965 39.8438 151.332 39.2891C151.699 38.7266 151.883 37.9336 151.883 36.9102C151.883 35.8945 151.699 35.1094 151.332 34.5547C150.965 33.9922 150.449 33.7109 149.785 33.7109C149.121 33.7109 148.605 33.9922 148.238 34.5547C147.871 35.1094 147.688 35.8945 147.688 36.9102C147.688 37.9336 147.871 38.7266 148.238 39.2891C148.605 39.8438 149.121 40.1211 149.785 40.1211ZM155.68 35.9258C155.391 35.9258 155.121 35.8516 154.871 35.7031C154.629 35.5547 154.434 35.3594 154.285 35.1172C154.137 34.8672 154.062 34.5977 154.062 34.3086C154.062 34.0195 154.137 33.7539 154.285 33.5117C154.434 33.2617 154.629 33.0625 154.871 32.9141C155.121 32.7656 155.391 32.6914 155.68 32.6914C155.969 32.6914 156.234 32.7656 156.477 32.9141C156.727 33.0625 156.926 33.2617 157.074 33.5117C157.223 33.7539 157.297 34.0195 157.297 34.3086C157.297 34.5977 157.223 34.8672 157.074 35.1172C156.926 35.3594 156.727 35.5547 156.477 35.7031C156.234 35.8516 155.969 35.9258 155.68 35.9258ZM155.68 35.293C155.953 35.293 156.184 35.1992 156.371 35.0117C156.566 34.8164 156.664 34.582 156.664 34.3086C156.664 34.0352 156.566 33.8047 156.371 33.6172C156.184 33.4219 155.953 33.3242 155.68 33.3242C155.406 33.3242 155.172 33.4219 154.977 33.6172C154.789 33.8047 154.695 34.0352 154.695 34.3086C154.695 34.582 154.789 34.8164 154.977 35.0117C155.172 35.1992 155.406 35.293 155.68 35.293Z" fill="#DEDDF4"/>
<path d="M141.703 260.262C141.703 260.207 141.688 260.172 141.656 260.156C141.633 260.133 141.594 260.137 141.539 260.168L140.52 260.66C140.418 260.707 140.328 260.73 140.25 260.73C140.102 260.73 139.977 260.684 139.875 260.59C139.781 260.488 139.734 260.363 139.734 260.215C139.734 259.988 139.84 259.824 140.051 259.723L141.645 258.891C141.73 258.836 141.84 258.809 141.973 258.809H142.219C142.375 258.809 142.508 258.867 142.617 258.984C142.734 259.094 142.793 259.227 142.793 259.383V266.18H141.703V260.262ZM140.32 267.012C140.18 267.012 140.059 266.965 139.957 266.871C139.863 266.77 139.816 266.648 139.816 266.508C139.816 266.367 139.863 266.246 139.957 266.145C140.059 266.043 140.18 265.992 140.32 265.992H143.941C144.082 265.992 144.203 266.043 144.305 266.145C144.406 266.246 144.457 266.367 144.457 266.508C144.457 266.648 144.406 266.77 144.305 266.871C144.203 266.965 144.082 267.012 143.941 267.012H140.32ZM149.285 267.129C148.559 267.129 147.961 267.016 147.492 266.789C147.039 266.57 146.699 266.289 146.473 265.945C146.254 265.602 146.145 265.23 146.145 264.832C146.145 263.746 146.719 263.008 147.867 262.617C147.461 262.469 147.137 262.242 146.895 261.938C146.652 261.633 146.531 261.266 146.531 260.836C146.531 260.484 146.625 260.152 146.812 259.84C147 259.488 147.305 259.211 147.727 259.008C148.148 258.797 148.668 258.691 149.285 258.691C149.934 258.691 150.461 258.797 150.867 259.008C151.258 259.211 151.551 259.477 151.746 259.805C151.941 260.133 152.039 260.477 152.039 260.836C152.039 261.266 151.918 261.633 151.676 261.938C151.434 262.242 151.109 262.469 150.703 262.617C151.852 263.008 152.426 263.746 152.426 264.832C152.426 265.223 152.32 265.59 152.109 265.934C151.891 266.301 151.539 266.594 151.055 266.812C150.578 267.023 149.988 267.129 149.285 267.129ZM149.285 266.168C149.77 266.168 150.168 266.086 150.48 265.922C150.762 265.773 150.973 265.59 151.113 265.371C151.262 265.152 151.336 264.934 151.336 264.715C151.336 264.23 151.141 263.848 150.75 263.566C150.367 263.285 149.879 263.145 149.285 263.145C148.691 263.145 148.199 263.285 147.809 263.566C147.426 263.848 147.234 264.23 147.234 264.715C147.234 264.91 147.305 265.121 147.445 265.348C147.594 265.59 147.82 265.789 148.125 265.945C148.438 266.094 148.824 266.168 149.285 266.168ZM149.285 262.16C149.832 262.16 150.246 262.043 150.527 261.809C150.809 261.566 150.949 261.266 150.949 260.906C150.949 260.516 150.801 260.211 150.504 259.992C150.207 259.766 149.801 259.652 149.285 259.652C148.77 259.652 148.363 259.766 148.066 259.992C147.77 260.211 147.621 260.516 147.621 260.906C147.621 261.266 147.762 261.566 148.043 261.809C148.324 262.043 148.738 262.16 149.285 262.16ZM156.645 267.129C155.621 267.129 154.832 266.754 154.277 266.004C153.73 265.254 153.457 264.223 153.457 262.91C153.457 261.598 153.73 260.566 154.277 259.816C154.832 259.066 155.621 258.691 156.645 258.691C157.652 258.691 158.434 259.062 158.988 259.805C159.551 260.547 159.832 261.582 159.832 262.91C159.832 264.238 159.551 265.273 158.988 266.016C158.434 266.758 157.652 267.129 156.645 267.129ZM156.645 266.121C157.309 266.121 157.824 265.844 158.191 265.289C158.559 264.727 158.742 263.934 158.742 262.91C158.742 261.895 158.559 261.109 158.191 260.555C157.824 259.992 157.309 259.711 156.645 259.711C155.98 259.711 155.465 259.992 155.098 260.555C154.73 261.109 154.547 261.895 154.547 262.91C154.547 263.934 154.73 264.727 155.098 265.289C155.465 265.844 155.98 266.121 156.645 266.121ZM162.539 261.926C162.25 261.926 161.98 261.852 161.73 261.703C161.488 261.555 161.293 261.359 161.145 261.117C160.996 260.867 160.922 260.598 160.922 260.309C160.922 260.02 160.996 259.754 161.145 259.512C161.293 259.262 161.488 259.062 161.73 258.914C161.98 258.766 162.25 258.691 162.539 258.691C162.828 258.691 163.094 258.766 163.336 258.914C163.586 259.062 163.785 259.262 163.934 259.512C164.082 259.754 164.156 260.02 164.156 260.309C164.156 260.598 164.082 260.867 163.934 261.117C163.785 261.359 163.586 261.555 163.336 261.703C163.094 261.852 162.828 261.926 162.539 261.926ZM162.539 261.293C162.812 261.293 163.043 261.199 163.23 261.012C163.426 260.816 163.523 260.582 163.523 260.309C163.523 260.035 163.426 259.805 163.23 259.617C163.043 259.422 162.812 259.324 162.539 259.324C162.266 259.324 162.031 259.422 161.836 259.617C161.648 259.805 161.555 260.035 161.555 260.309C161.555 260.582 161.648 260.816 161.836 261.012C162.031 261.199 162.266 261.293 162.539 261.293Z" fill="#DEDDF4"/>
<path d="M259.703 146.262C259.703 146.207 259.688 146.172 259.656 146.156C259.633 146.133 259.594 146.137 259.539 146.168L258.52 146.66C258.418 146.707 258.328 146.73 258.25 146.73C258.102 146.73 257.977 146.684 257.875 146.59C257.781 146.488 257.734 146.363 257.734 146.215C257.734 145.988 257.84 145.824 258.051 145.723L259.645 144.891C259.73 144.836 259.84 144.809 259.973 144.809H260.219C260.375 144.809 260.508 144.867 260.617 144.984C260.734 145.094 260.793 145.227 260.793 145.383V152.18H259.703V146.262ZM258.32 153.012C258.18 153.012 258.059 152.965 257.957 152.871C257.863 152.77 257.816 152.648 257.816 152.508C257.816 152.367 257.863 152.246 257.957 152.145C258.059 152.043 258.18 151.992 258.32 151.992H261.941C262.082 151.992 262.203 152.043 262.305 152.145C262.406 152.246 262.457 152.367 262.457 152.508C262.457 152.648 262.406 152.77 262.305 152.871C262.203 152.965 262.082 153.012 261.941 153.012H258.32ZM267.285 153.129C266.559 153.129 265.961 153.016 265.492 152.789C265.039 152.57 264.699 152.289 264.473 151.945C264.254 151.602 264.145 151.23 264.145 150.832C264.145 149.746 264.719 149.008 265.867 148.617C265.461 148.469 265.137 148.242 264.895 147.938C264.652 147.633 264.531 147.266 264.531 146.836C264.531 146.484 264.625 146.152 264.812 145.84C265 145.488 265.305 145.211 265.727 145.008C266.148 144.797 266.668 144.691 267.285 144.691C267.934 144.691 268.461 144.797 268.867 145.008C269.258 145.211 269.551 145.477 269.746 145.805C269.941 146.133 270.039 146.477 270.039 146.836C270.039 147.266 269.918 147.633 269.676 147.938C269.434 148.242 269.109 148.469 268.703 148.617C269.852 149.008 270.426 149.746 270.426 150.832C270.426 151.223 270.32 151.59 270.109 151.934C269.891 152.301 269.539 152.594 269.055 152.812C268.578 153.023 267.988 153.129 267.285 153.129ZM267.285 152.168C267.77 152.168 268.168 152.086 268.48 151.922C268.762 151.773 268.973 151.59 269.113 151.371C269.262 151.152 269.336 150.934 269.336 150.715C269.336 150.23 269.141 149.848 268.75 149.566C268.367 149.285 267.879 149.145 267.285 149.145C266.691 149.145 266.199 149.285 265.809 149.566C265.426 149.848 265.234 150.23 265.234 150.715C265.234 150.91 265.305 151.121 265.445 151.348C265.594 151.59 265.82 151.789 266.125 151.945C266.438 152.094 266.824 152.168 267.285 152.168ZM267.285 148.16C267.832 148.16 268.246 148.043 268.527 147.809C268.809 147.566 268.949 147.266 268.949 146.906C268.949 146.516 268.801 146.211 268.504 145.992C268.207 145.766 267.801 145.652 267.285 145.652C266.77 145.652 266.363 145.766 266.066 145.992C265.77 146.211 265.621 146.516 265.621 146.906C265.621 147.266 265.762 147.566 266.043 147.809C266.324 148.043 266.738 148.16 267.285 148.16ZM274.645 153.129C273.621 153.129 272.832 152.754 272.277 152.004C271.73 151.254 271.457 150.223 271.457 148.91C271.457 147.598 271.73 146.566 272.277 145.816C272.832 145.066 273.621 144.691 274.645 144.691C275.652 144.691 276.434 145.062 276.988 145.805C277.551 146.547 277.832 147.582 277.832 148.91C277.832 150.238 277.551 151.273 276.988 152.016C276.434 152.758 275.652 153.129 274.645 153.129ZM274.645 152.121C275.309 152.121 275.824 151.844 276.191 151.289C276.559 150.727 276.742 149.934 276.742 148.91C276.742 147.895 276.559 147.109 276.191 146.555C275.824 145.992 275.309 145.711 274.645 145.711C273.98 145.711 273.465 145.992 273.098 146.555C272.73 147.109 272.547 147.895 272.547 148.91C272.547 149.934 272.73 150.727 273.098 151.289C273.465 151.844 273.98 152.121 274.645 152.121ZM280.539 147.926C280.25 147.926 279.98 147.852 279.73 147.703C279.488 147.555 279.293 147.359 279.145 147.117C278.996 146.867 278.922 146.598 278.922 146.309C278.922 146.02 278.996 145.754 279.145 145.512C279.293 145.262 279.488 145.062 279.73 144.914C279.98 144.766 280.25 144.691 280.539 144.691C280.828 144.691 281.094 144.766 281.336 144.914C281.586 145.062 281.785 145.262 281.934 145.512C282.082 145.754 282.156 146.02 282.156 146.309C282.156 146.598 282.082 146.867 281.934 147.117C281.785 147.359 281.586 147.555 281.336 147.703C281.094 147.852 280.828 147.926 280.539 147.926ZM280.539 147.293C280.812 147.293 281.043 147.199 281.23 147.012C281.426 146.816 281.523 146.582 281.523 146.309C281.523 146.035 281.426 145.805 281.23 145.617C281.043 145.422 280.812 145.324 280.539 145.324C280.266 145.324 280.031 145.422 279.836 145.617C279.648 145.805 279.555 146.035 279.555 146.309C279.555 146.582 279.648 146.816 279.836 147.012C280.031 147.199 280.266 147.293 280.539 147.293Z" fill="#DEDDF4"/>
<path d="M24.1953 153.129C23.7812 153.129 23.4102 153.086 23.082 153C22.7617 152.914 22.4414 152.789 22.1211 152.625C22.043 152.586 21.9805 152.527 21.9336 152.449C21.8867 152.363 21.8633 152.277 21.8633 152.191C21.8633 152.066 21.9102 151.953 22.0039 151.852C22.1055 151.75 22.2227 151.699 22.3555 151.699C22.4336 151.699 22.5 151.711 22.5547 151.734C23.0469 151.961 23.5664 152.074 24.1133 152.074C24.9258 152.074 25.5234 151.793 25.9062 151.23C26.2969 150.668 26.5156 149.953 26.5625 149.086L26.5859 149.098C26.0391 149.785 25.2344 150.129 24.1719 150.129C23.6562 150.129 23.1914 150.016 22.7773 149.789C22.3555 149.547 22.0312 149.219 21.8047 148.805C21.5859 148.383 21.4766 147.902 21.4766 147.363C21.4766 146.871 21.5938 146.422 21.8281 146.016C22.0703 145.594 22.4141 145.27 22.8594 145.043C23.3047 144.809 23.8125 144.691 24.3828 144.691C26.5312 144.691 27.6055 146.094 27.6055 148.898C27.6055 149.586 27.4961 150.246 27.2773 150.879C27.043 151.559 26.6602 152.105 26.1289 152.52C25.6055 152.926 24.9609 153.129 24.1953 153.129ZM24.3008 149.133C25.3086 149.133 26.043 148.707 26.5039 147.855C26.293 146.426 25.582 145.711 24.3711 145.711C24.0117 145.711 23.6953 145.785 23.4219 145.934C23.1484 146.082 22.9375 146.285 22.7891 146.543C22.6406 146.793 22.5664 147.074 22.5664 147.387C22.5664 147.934 22.7188 148.363 23.0234 148.676C23.3281 148.98 23.7539 149.133 24.3008 149.133ZM31.9648 153.129C30.9414 153.129 30.1523 152.754 29.5977 152.004C29.0508 151.254 28.7773 150.223 28.7773 148.91C28.7773 147.598 29.0508 146.566 29.5977 145.816C30.1523 145.066 30.9414 144.691 31.9648 144.691C32.9727 144.691 33.7539 145.062 34.3086 145.805C34.8711 146.547 35.1523 147.582 35.1523 148.91C35.1523 150.238 34.8711 151.273 34.3086 152.016C33.7539 152.758 32.9727 153.129 31.9648 153.129ZM31.9648 152.121C32.6289 152.121 33.1445 151.844 33.5117 151.289C33.8789 150.727 34.0625 149.934 34.0625 148.91C34.0625 147.895 33.8789 147.109 33.5117 146.555C33.1445 145.992 32.6289 145.711 31.9648 145.711C31.3008 145.711 30.7852 145.992 30.418 146.555C30.0508 147.109 29.8672 147.895 29.8672 148.91C29.8672 149.934 30.0508 150.727 30.418 151.289C30.7852 151.844 31.3008 152.121 31.9648 152.121ZM37.8594 147.926C37.5703 147.926 37.3008 147.852 37.0508 147.703C36.8086 147.555 36.6133 147.359 36.4648 147.117C36.3164 146.867 36.2422 146.598 36.2422 146.309C36.2422 146.02 36.3164 145.754 36.4648 145.512C36.6133 145.262 36.8086 145.062 37.0508 144.914C37.3008 144.766 37.5703 144.691 37.8594 144.691C38.1484 144.691 38.4141 144.766 38.6562 144.914C38.9062 145.062 39.1055 145.262 39.2539 145.512C39.4023 145.754 39.4766 146.02 39.4766 146.309C39.4766 146.598 39.4023 146.867 39.2539 147.117C39.1055 147.359 38.9062 147.555 38.6562 147.703C38.4141 147.852 38.1484 147.926 37.8594 147.926ZM37.8594 147.293C38.1328 147.293 38.3633 147.199 38.5508 147.012C38.7461 146.816 38.8438 146.582 38.8438 146.309C38.8438 146.035 38.7461 145.805 38.5508 145.617C38.3633 145.422 38.1328 145.324 37.8594 145.324C37.5859 145.324 37.3516 145.422 37.1562 145.617C36.9688 145.805 36.875 146.035 36.875 146.309C36.875 146.582 36.9688 146.816 37.1562 147.012C37.3516 147.199 37.5859 147.293 37.8594 147.293Z" fill="#DEDDF4"/>
<path d="M170 71.5H168.5V74.5H170V73V71.5ZM225.939 131.061C226.525 131.646 227.475 131.646 228.061 131.061L237.607 121.515C238.192 120.929 238.192 119.979 237.607 119.393C237.021 118.808 236.071 118.808 235.485 119.393L227 127.879L218.515 119.393C217.929 118.808 216.979 118.808 216.393 119.393C215.808 119.979 215.808 120.929 216.393 121.515L225.939 131.061ZM170 73V74.5C200.652 74.5 225.5 99.3482 225.5 130H227H228.5C228.5 97.6913 202.309 71.5 170 71.5V73Z" fill="#F6C279"/>
</svg>
